<svg width="54" height="75" viewBox="0 0 54 75" fill="none" xmlns="http://www.w3.org/2000/svg">
<mask id="mask0_38_184" style="mask-type:alpha" maskUnits="userSpaceOnUse" x="0" y="0" width="54" height="75">
<g clip-path="url(#clip0_38_184)">
<path d="M14.5115 62.7574C14.4461 62.7237 14.4413 62.7048 14.4413 62.5774C14.4413 62.3419 14.4597 62.1545 14.4646 62.0792C14.4694 62.0271 14.479 62.0039 14.5023 62.0039C14.5256 62.0039 14.5357 62.0175 14.5357 62.0556C14.5342 62.1142 14.5388 62.1729 14.5493 62.2307C14.5875 62.3821 14.6796 62.5144 14.8084 62.603C14.9373 62.6916 15.0941 62.7305 15.2495 62.7123C15.3359 62.7184 15.4226 62.7067 15.5042 62.678C15.5858 62.6493 15.6607 62.6041 15.7241 62.5453C15.7874 62.4865 15.838 62.4153 15.8726 62.3362C15.9072 62.2571 15.9251 62.1717 15.9252 62.0853C15.9252 61.76 15.7882 61.5713 15.3812 61.2369L15.1688 61.0617C14.6683 60.6506 14.5541 60.3612 14.5541 60.0381C14.5551 59.916 14.5821 59.7955 14.6334 59.6845C14.6846 59.5736 14.7589 59.4747 14.8514 59.3946C14.9438 59.3144 15.0523 59.2548 15.1696 59.2196C15.2869 59.1844 15.4104 59.1745 15.5318 59.1905C15.6795 59.1885 15.8268 59.204 15.9708 59.2366C16.0249 59.2502 16.0802 59.2581 16.1359 59.2602C16.1737 59.2602 16.1833 59.2694 16.1833 59.293C16.1833 59.3166 16.1645 59.4717 16.1645 59.793C16.1645 59.8683 16.1552 59.9007 16.1311 59.9007C16.1069 59.9007 16.0982 59.8779 16.0933 59.8398C16.0848 59.7588 16.0641 59.6796 16.0319 59.6047C16.0038 59.5531 15.876 59.3534 15.4409 59.3534C15.3658 59.3473 15.2902 59.3569 15.219 59.3818C15.1479 59.4067 15.0828 59.4462 15.028 59.4978C14.9732 59.5495 14.9298 59.612 14.9008 59.6814C14.8719 59.7508 14.8578 59.8255 14.8597 59.9007C14.8597 60.1699 14.9826 60.3385 15.4366 60.6931L15.5683 60.7969C16.1263 61.2347 16.2584 61.5267 16.2584 61.905C16.2575 62.0575 16.2207 62.2077 16.1509 62.3434C16.0811 62.4791 15.9803 62.5966 15.8567 62.6864C15.6445 62.8233 15.3955 62.8925 15.1428 62.8848C14.9248 62.8907 14.7082 62.8473 14.5093 62.7578" fill="white"/>
<path d="M17.3998 60.9479C17.3998 60.3253 17.3998 60.2115 17.3902 60.0845C17.3809 59.9483 17.3572 59.8822 17.2203 59.8656C17.1732 59.8597 17.1259 59.8566 17.0785 59.8564C17.0702 59.8548 17.0626 59.8507 17.0567 59.8447C17.0508 59.8387 17.0469 59.831 17.0455 59.8227C17.0455 59.7995 17.0644 59.7903 17.1118 59.7903C17.301 59.7903 17.5794 59.7995 17.6031 59.7995C17.647 59.7995 17.9951 59.7903 18.1225 59.7903C18.3926 59.7704 18.6626 59.8314 18.8978 59.9654C18.9844 60.0287 19.0553 60.1108 19.1052 60.2056C19.1551 60.3004 19.1827 60.4053 19.1858 60.5123C19.1777 60.6937 19.1273 60.8708 19.0388 61.0295C18.9503 61.1882 18.8259 61.3242 18.6756 61.4268C19.0159 61.8497 19.3048 62.2149 19.5453 62.4627C19.6604 62.6089 19.8254 62.7078 20.0089 62.7407C20.0571 62.7503 20.1061 62.7551 20.1551 62.7551C20.1645 62.7547 20.1737 62.758 20.1807 62.7642C20.1878 62.7704 20.1921 62.7791 20.1929 62.7884C20.1929 62.812 20.1696 62.8217 20.0937 62.8217H19.8342C19.6815 62.8361 19.5278 62.8082 19.3899 62.7411C19.1639 62.5838 18.9711 62.3839 18.8223 62.1527C18.6467 61.9338 18.4631 61.6764 18.3736 61.5687C18.3671 61.56 18.3585 61.5531 18.3486 61.5488C18.3386 61.5445 18.3277 61.5429 18.3169 61.5441L17.7875 61.5349C17.7686 61.5349 17.7594 61.5441 17.7594 61.5687V61.6623C17.7594 62.0485 17.7594 62.3598 17.7783 62.5235C17.7923 62.6422 17.816 62.7174 17.9438 62.7367C18.0047 62.7466 18.0661 62.7527 18.1277 62.7551C18.1322 62.7545 18.1368 62.755 18.1412 62.7565C18.1455 62.758 18.1494 62.7604 18.1526 62.7636C18.1558 62.7668 18.1582 62.7707 18.1597 62.775C18.1612 62.7793 18.1617 62.7839 18.1611 62.7884C18.1611 62.8068 18.1422 62.8217 18.0952 62.8217C17.8683 62.8217 17.6035 62.8072 17.5842 62.8072C17.5794 62.8072 17.3011 62.8217 17.1733 62.8217C17.1294 62.8217 17.107 62.8125 17.107 62.7884C17.1069 62.784 17.1076 62.7797 17.1093 62.7756C17.1109 62.7716 17.1133 62.7679 17.1164 62.7648C17.1194 62.7617 17.1231 62.7592 17.1272 62.7575C17.1312 62.7559 17.1355 62.755 17.1399 62.7551C17.183 62.7536 17.2259 62.7474 17.2677 62.7367C17.348 62.7174 17.3555 62.6422 17.3761 62.5235C17.3995 62.2355 17.4074 61.9464 17.3998 61.6575V60.9479ZM17.7589 61.2867C17.7588 61.2971 17.7613 61.3074 17.7662 61.3166C17.7711 61.3258 17.7783 61.3336 17.787 61.3393C17.9357 61.3841 18.0906 61.4046 18.2458 61.4001C18.3546 61.4082 18.4633 61.3832 18.5575 61.3283C18.6459 61.254 18.7148 61.1593 18.7584 61.0526C18.802 60.9458 18.8189 60.8301 18.8078 60.7154C18.8221 60.6147 18.814 60.5121 18.7839 60.4148C18.7539 60.3176 18.7028 60.2282 18.6342 60.1529C18.5655 60.0777 18.4811 60.0184 18.3869 59.9794C18.2927 59.9404 18.191 59.9227 18.0891 59.9273C17.9896 59.9269 17.8901 59.9347 17.7919 59.9505C17.7822 59.954 17.7738 59.9604 17.7679 59.9687C17.762 59.9771 17.7589 59.9871 17.7589 59.9974V61.2867Z" fill="white"/>
<path d="M20.9543 61.654C20.9543 62.0401 20.9543 62.3545 20.9736 62.5204C20.9876 62.639 21.0012 62.7143 21.1246 62.7332C21.1871 62.7429 21.2502 62.7492 21.3134 62.752C21.3178 62.7518 21.3222 62.7526 21.3263 62.7542C21.3303 62.7558 21.3341 62.7582 21.3372 62.7613C21.3404 62.7643 21.3429 62.768 21.3446 62.7721C21.3463 62.7761 21.3472 62.7804 21.3472 62.7848C21.3472 62.8036 21.3274 62.8181 21.2809 62.8181C21.0491 62.8181 20.7787 62.8036 20.7602 62.8036C20.7418 62.8036 20.4766 62.8181 20.3489 62.8181C20.305 62.8181 20.2826 62.8084 20.2826 62.7848C20.2825 62.7804 20.2833 62.7761 20.285 62.7721C20.2866 62.768 20.2891 62.7644 20.2922 62.7613C20.2953 62.7582 20.299 62.7558 20.3031 62.7542C20.3072 62.7526 20.3115 62.7518 20.3159 62.752C20.3592 62.7503 20.4022 62.744 20.4441 62.7332C20.524 62.7143 20.5385 62.6386 20.5526 62.5204C20.571 62.3567 20.5763 62.0388 20.5763 61.654V60.9474C20.5763 60.3248 20.5763 60.211 20.5666 60.084C20.5574 59.9478 20.5227 59.8861 20.4349 59.8677C20.3929 59.859 20.3501 59.8543 20.3071 59.8537C20.2986 59.8528 20.2907 59.8489 20.2847 59.8428C20.2788 59.8366 20.2752 59.8285 20.2747 59.82C20.2747 59.7968 20.2935 59.7876 20.3405 59.7876C20.4779 59.7876 20.7356 59.7968 20.7615 59.7968C20.7874 59.7968 21.0504 59.7876 21.1769 59.7876C21.2251 59.7876 21.2436 59.7968 21.2436 59.82C21.2423 59.8283 21.2385 59.8359 21.2327 59.8419C21.2269 59.848 21.2193 59.8521 21.2111 59.8537C21.1759 59.8529 21.1407 59.8559 21.1062 59.8629C20.9929 59.8857 20.9696 59.9426 20.9595 60.0818C20.9551 60.2088 20.9551 60.3226 20.9551 60.9452L20.9543 61.654Z" fill="white"/>
<path d="M23.8922 61.4601C23.8922 62.154 23.9106 62.4556 23.9953 62.5401C24.0709 62.6154 24.1942 62.6479 24.563 62.6479C24.8128 62.6479 25.0214 62.6435 25.1337 62.5069C25.1971 62.4237 25.2394 62.3266 25.2571 62.2236C25.2619 62.186 25.2712 62.1632 25.301 62.1632C25.3309 62.1632 25.3287 62.1816 25.3287 62.2332C25.318 62.3921 25.2944 62.5498 25.258 62.7048C25.2255 62.8125 25.2101 62.8326 24.9603 62.8326C24.6201 62.8326 24.3738 62.8216 24.1758 62.8181C23.9778 62.8146 23.8312 62.8037 23.6929 62.8037C23.6744 62.8037 23.5941 62.8089 23.4997 62.8089C23.4053 62.8089 23.3013 62.8181 23.2301 62.8181C23.1775 62.8181 23.1546 62.8089 23.1546 62.7809C23.1546 62.7665 23.1638 62.752 23.1915 62.752C23.2393 62.7506 23.2868 62.7444 23.3333 62.7336C23.4281 62.7148 23.4523 62.6111 23.4707 62.4745C23.494 62.2762 23.494 61.9053 23.494 61.4513V60.6217C23.494 59.8862 23.494 59.7548 23.4848 59.6042C23.4756 59.4431 23.4387 59.3678 23.2819 59.335C23.2289 59.3254 23.1751 59.3205 23.1213 59.3205C23.1019 59.3205 23.0835 59.3113 23.0835 59.2929C23.0835 59.2649 23.1068 59.2544 23.159 59.2544C23.3719 59.2544 23.6696 59.2689 23.6929 59.2689C23.7161 59.2689 24.0616 59.2544 24.2034 59.2544C24.2561 59.2544 24.2794 59.2649 24.2794 59.2929C24.2794 59.3113 24.2605 59.3205 24.2412 59.3205C24.189 59.3218 24.1369 59.3266 24.0854 59.335C23.9471 59.3591 23.9098 59.4392 23.901 59.6042C23.8918 59.7548 23.8918 59.8862 23.8918 60.6217L23.8922 61.4601Z" fill="white"/>
<path d="M26.8697 59.8678C26.9215 59.7365 26.9408 59.7124 26.9684 59.7124C27.0124 59.7124 27.0255 59.7689 27.0681 59.8578C27.1436 60.0276 27.8101 61.6821 28.0656 62.2902C28.2166 62.6478 28.329 62.7004 28.4194 62.728C28.4734 62.7435 28.5292 62.7515 28.5854 62.7516C28.6087 62.7516 28.6376 62.7608 28.6376 62.7849C28.6376 62.809 28.5902 62.8177 28.5419 62.8177C28.4809 62.8177 28.1736 62.8178 27.8834 62.8086C27.8035 62.8033 27.7367 62.8033 27.7367 62.7805C27.7367 62.7577 27.7468 62.7608 27.7653 62.7521C27.7756 62.7482 27.7849 62.7421 27.7925 62.7342C27.8002 62.7264 27.806 62.7169 27.8096 62.7066C27.8132 62.6962 27.8145 62.6852 27.8134 62.6743C27.8122 62.6634 27.8087 62.6529 27.803 62.6435L27.429 61.7241C27.4198 61.704 27.415 61.7005 27.3917 61.7005H26.432C26.4135 61.7005 26.3999 61.7096 26.3881 61.7333L26.1519 62.3742C26.1166 62.4597 26.0958 62.5504 26.0904 62.6426C26.0904 62.7227 26.1615 62.7512 26.2322 62.7512H26.2708C26.3033 62.7512 26.3148 62.7656 26.3148 62.7845C26.3148 62.8033 26.2915 62.8173 26.2546 62.8173C26.1541 62.8173 25.9275 62.8028 25.8801 62.8028C25.8327 62.8028 25.6294 62.8173 25.46 62.8173C25.4077 62.8173 25.3796 62.8081 25.3796 62.7845C25.3804 62.7751 25.3848 62.7665 25.3918 62.7603C25.3988 62.7541 25.408 62.7508 25.4174 62.7512C25.4459 62.7512 25.5052 62.746 25.5403 62.742C25.7291 62.7184 25.8094 62.5765 25.8915 62.3742L26.8697 59.8678ZM27.3324 61.5354C27.3509 61.5354 27.3508 61.5262 27.3465 61.5078L26.936 60.4094C26.9114 60.3477 26.8881 60.3477 26.8653 60.4094L26.4781 61.5078C26.4723 61.5262 26.4781 61.5354 26.4921 61.5354H27.3324Z" fill="white"/>
<path d="M29.3598 62.2706C29.369 62.6003 29.4076 62.7001 29.52 62.7276C29.5885 62.7426 29.6584 62.7506 29.7286 62.7513C29.733 62.7513 29.7373 62.7521 29.7414 62.7537C29.7455 62.7554 29.7492 62.7578 29.7523 62.7609C29.7554 62.764 29.7578 62.7677 29.7595 62.7718C29.7612 62.7759 29.762 62.7802 29.7619 62.7846C29.7619 62.8082 29.7334 62.8174 29.686 62.8174C29.4498 62.8174 29.2843 62.8029 29.247 62.8029C29.2096 62.8029 29.034 62.8174 28.8452 62.8174C28.8013 62.8174 28.7781 62.8121 28.7781 62.7846C28.7781 62.7802 28.7789 62.7758 28.7806 62.7717C28.7824 62.7677 28.7848 62.764 28.788 62.7609C28.7911 62.7578 28.7949 62.7554 28.799 62.7537C28.8031 62.7521 28.8074 62.7513 28.8119 62.7513C28.8693 62.7508 28.9264 62.7428 28.9818 62.7276C29.0863 62.7001 29.1008 62.5915 29.1008 62.229V59.9327C29.1008 59.7725 29.124 59.7305 29.1569 59.7305C29.2039 59.7305 29.275 59.8102 29.3181 59.8535C29.3835 59.9196 29.9893 60.5597 30.6307 61.2194C31.043 61.6437 31.4873 62.1196 31.615 62.2518L31.5711 60.244C31.5663 59.9839 31.5435 59.8938 31.4153 59.8719C31.348 59.86 31.2799 59.8537 31.2116 59.8531C31.1839 59.8531 31.1791 59.829 31.1791 59.8145C31.1791 59.7918 31.2116 59.787 31.2594 59.787C31.4478 59.787 31.6467 59.7961 31.6945 59.7961C31.7424 59.7961 31.878 59.787 32.0457 59.787C32.0896 59.787 32.1217 59.7918 32.1217 59.8145C32.1198 59.8254 32.1141 59.8352 32.1057 59.8422C32.0973 59.8493 32.0866 59.8531 32.0756 59.8531C32.0418 59.8526 32.0081 59.8557 31.975 59.8623C31.8394 59.8898 31.8288 59.9699 31.8288 60.2099L31.8196 62.5578C31.8196 62.8205 31.8166 62.8454 31.7872 62.8454C31.7432 62.8454 31.7024 62.8113 31.471 62.5998C31.4271 62.5622 30.8279 61.9729 30.388 61.5158C29.905 61.011 29.4375 60.522 29.3115 60.3802L29.3598 62.2706Z" fill="white"/>
<path d="M33.0283 60.9474C33.0283 60.3248 33.0283 60.2115 33.0173 60.0841C33.0081 59.9479 32.9848 59.8813 32.8474 59.8652C32.8004 59.8593 32.753 59.8562 32.7056 59.856C32.6974 59.8543 32.6898 59.8502 32.684 59.8442C32.6782 59.8382 32.6744 59.8305 32.6731 59.8222C32.6731 59.7986 32.6915 59.7898 32.7381 59.7898C32.9291 59.7898 33.1837 59.7986 33.207 59.7986C33.2443 59.7986 33.4958 59.7898 33.6174 59.7898C33.6653 59.7898 33.6851 59.7986 33.6851 59.8222C33.6842 59.8309 33.6804 59.839 33.6742 59.8451C33.668 59.8513 33.6599 59.8551 33.6513 59.856C33.6159 59.8553 33.5806 59.8583 33.5459 59.8652C33.4379 59.8879 33.4102 59.9448 33.401 60.0841C33.3905 60.211 33.3905 60.3248 33.3905 60.9474V61.1878H33.4102C33.4765 61.1125 34.2189 60.3817 34.373 60.2219C34.4915 60.1033 34.5995 60 34.5995 59.9339C34.5995 59.8822 34.5811 59.8586 34.5491 59.8542C34.5394 59.8528 34.5306 59.8482 34.5238 59.8413C34.5171 59.8343 34.5128 59.8253 34.5118 59.8157C34.5118 59.7973 34.5302 59.7881 34.5578 59.7881C34.6426 59.7881 34.7708 59.7969 34.8696 59.7969C34.8941 59.7969 35.1685 59.7881 35.2721 59.7881C35.316 59.7881 35.3323 59.7968 35.3323 59.8157C35.3323 59.8345 35.3231 59.849 35.291 59.849C35.211 59.8541 35.1325 59.8733 35.0592 59.9058C34.894 59.9904 34.7463 60.1056 34.6241 60.2451C34.521 60.3388 33.8115 61.0175 33.7219 61.1168C33.8299 61.2346 34.6952 62.0975 34.8634 62.2551C35.2146 62.5655 35.2612 62.618 35.4587 62.6982C35.5409 62.7289 35.6271 62.7478 35.7147 62.7542C35.7428 62.7542 35.766 62.7686 35.766 62.7875C35.766 62.8063 35.7472 62.8203 35.6782 62.8203H35.4653C35.3691 62.8222 35.2728 62.8192 35.1769 62.8111C34.9861 62.7869 34.8086 62.7005 34.672 62.5655C34.4823 62.4197 33.6091 61.5012 33.4102 61.2657H33.3905V61.6562C33.3905 62.0423 33.3905 62.3567 33.4102 62.5222C33.4238 62.6408 33.4427 62.7161 33.5705 62.7353C33.6235 62.7451 33.6772 62.7512 33.7312 62.7537C33.7355 62.7537 33.7398 62.7545 33.7439 62.7562C33.7479 62.7579 33.7515 62.7603 33.7546 62.7634C33.7576 62.7665 33.76 62.7702 33.7615 62.7743C33.7631 62.7784 33.7638 62.7827 33.7636 62.787C33.7636 62.8059 33.7452 62.8198 33.6973 62.8198C33.4954 62.8198 33.2438 62.8054 33.2113 62.8054C33.1789 62.8054 32.9291 62.8198 32.8009 62.8198C32.757 62.8198 32.7328 62.8107 32.7328 62.787C32.7328 62.7826 32.7337 62.7783 32.7354 62.7742C32.7371 62.7701 32.7396 62.7664 32.7427 62.7634C32.7459 62.7603 32.7496 62.7578 32.7537 62.7561C32.7578 62.7545 32.7622 62.7537 32.7666 62.7537C32.8099 62.7522 32.8529 62.746 32.8948 62.7353C32.9747 62.7165 32.9826 62.6408 33.0041 62.5222C33.027 62.2341 33.0348 61.945 33.0274 61.6562L33.0283 60.9474Z" fill="white"/>
<path d="M36.785 59.8678C36.8377 59.7365 36.8562 59.7124 36.8851 59.7124C36.9268 59.7124 36.9409 59.7689 36.9839 59.8578C37.0594 60.0276 37.7245 61.6821 37.9805 62.2902C38.132 62.6478 38.2439 62.7004 38.3352 62.728C38.3887 62.7435 38.4441 62.7515 38.4999 62.7516C38.5231 62.7516 38.5525 62.7608 38.5525 62.7849C38.5525 62.809 38.5047 62.8177 38.4568 62.8177C38.3967 62.8177 38.0898 62.8178 37.7983 62.8086C37.7197 62.8033 37.6534 62.8033 37.6534 62.7805C37.6534 62.7577 37.6626 62.7608 37.6811 62.7521C37.6913 62.7482 37.7006 62.7421 37.7083 62.7342C37.7159 62.7264 37.7218 62.717 37.7255 62.7066C37.7292 62.6963 37.7306 62.6854 37.7296 62.6745C37.7286 62.6636 37.7252 62.653 37.7197 62.6435L37.3448 61.7241C37.3369 61.704 37.3312 61.7005 37.3075 61.7005H36.3478C36.3378 61.7002 36.328 61.7032 36.32 61.7092C36.3121 61.7152 36.3063 61.7237 36.3038 61.7333L36.0677 62.3742C36.032 62.4595 36.0112 62.5503 36.0062 62.6426C36.0062 62.7227 36.0769 62.7512 36.1493 62.7512H36.1866C36.2191 62.7512 36.2305 62.7656 36.2305 62.7845C36.2305 62.8033 36.2068 62.8173 36.1699 62.8173C36.0699 62.8173 35.8429 62.8028 35.7968 62.8028C35.7507 62.8028 35.547 62.8173 35.3757 62.8173C35.3231 62.8173 35.2954 62.8081 35.2954 62.7845C35.2962 62.7752 35.3005 62.7666 35.3074 62.7604C35.3144 62.7542 35.3234 62.751 35.3327 62.7512C35.3617 62.7512 35.4236 62.746 35.4561 62.742C35.6458 62.7184 35.7261 62.5765 35.8047 62.3742L36.785 59.8678ZM37.2478 61.5354C37.2662 61.5354 37.2662 61.5262 37.2631 61.5078L36.8513 60.4094C36.8276 60.3477 36.803 60.3477 36.7802 60.4094L36.393 61.5078C36.3868 61.5262 36.393 61.5354 36.407 61.5354H37.2478Z" fill="white"/>
<path d="M7.9775 67.2715C7.9775 66.8906 7.95423 66.8389 7.76501 66.7868C7.71199 66.7773 7.6582 66.7726 7.60433 66.7728C7.58501 66.7728 7.56657 66.7636 7.56657 66.7439C7.56657 66.7164 7.58984 66.7067 7.64209 66.7067C7.85458 66.7067 8.15267 66.7212 8.17638 66.7212C8.20009 66.7212 8.49775 66.7067 8.63911 66.7067C8.69135 66.7067 8.71462 66.7159 8.71462 66.7439C8.71462 66.7641 8.69574 66.7728 8.67687 66.7728C8.63718 66.7742 8.59767 66.7789 8.55877 66.7868C8.43101 66.8101 8.39325 66.891 8.38316 67.0561C8.3735 67.2067 8.3735 67.3468 8.3735 67.5451V68.0735C8.3735 68.285 8.36867 68.2924 8.31203 68.3274C7.89774 68.5073 7.4432 68.5751 6.99428 68.5238C6.54535 68.4725 6.11794 68.3041 5.75516 68.0354C5.57461 67.8615 5.43156 67.6527 5.33478 67.4217C5.238 67.1908 5.18953 66.9426 5.19233 66.6923C5.18075 66.3881 5.24725 66.086 5.38555 65.8146C5.52385 65.5432 5.72934 65.3115 5.98257 65.1416C6.36477 64.9256 6.80076 64.8226 7.2395 64.8447C7.48243 64.85 7.72441 64.8768 7.96257 64.9248C8.08891 64.9506 8.21705 64.9665 8.34584 64.9726C8.39282 64.9765 8.40248 64.9958 8.40248 65.0137C8.37892 65.2361 8.36793 65.4596 8.36955 65.6831C8.36955 65.7584 8.36033 65.7821 8.32565 65.7821C8.30194 65.7821 8.29711 65.7536 8.29272 65.712C8.2838 65.6017 8.24988 65.4948 8.1935 65.3994C8.04819 65.2578 7.87319 65.1502 7.68112 65.0842C7.48906 65.0181 7.2847 64.9954 7.08277 65.0177C6.8804 64.9967 6.67588 65.0215 6.4845 65.0904C6.29313 65.1593 6.11985 65.2705 5.97761 65.4156C5.83538 65.5606 5.72787 65.7359 5.66312 65.9282C5.59837 66.1206 5.57805 66.325 5.6037 66.5263C5.60044 67.0087 5.77908 67.4747 6.10418 67.8319C6.26642 67.9941 6.45959 68.1223 6.67229 68.2089C6.88499 68.2955 7.11293 68.3388 7.34267 68.3362C7.52707 68.342 7.71058 68.3084 7.88091 68.2377C7.9112 68.2224 7.93629 68.1986 7.95307 68.1691C7.96986 68.1397 7.97759 68.106 7.9753 68.0722L7.9775 67.2715Z" fill="white"/>
<path d="M9.69853 66.6033C9.69853 65.9803 9.69853 65.8673 9.68887 65.7399C9.67965 65.6029 9.65594 65.5368 9.51897 65.5184C9.47193 65.5124 9.42458 65.5094 9.37716 65.5092C9.36882 65.5077 9.36116 65.5037 9.35525 65.4977C9.34934 65.4916 9.34549 65.4838 9.34424 65.4755C9.34424 65.4523 9.36311 65.4431 9.41009 65.4431C9.59931 65.4431 9.86887 65.4523 9.89302 65.4523C9.91717 65.4523 10.7913 65.4571 10.8857 65.4523C10.949 65.4482 11.012 65.4404 11.0744 65.4287C11.0929 65.4212 11.112 65.4153 11.1315 65.4111C11.1456 65.4111 11.1499 65.4286 11.1499 65.4479C11.1499 65.4755 11.1267 65.5232 11.1175 65.637C11.1122 65.6742 11.103 65.8524 11.0942 65.8997C11.0889 65.9181 11.0744 65.9435 11.056 65.9435C11.0376 65.9435 11.0231 65.9251 11.0231 65.8923C11.023 65.844 11.015 65.7961 10.9994 65.7504C10.9713 65.6843 10.9287 65.6563 10.7021 65.627C10.631 65.6178 10.149 65.6134 10.1016 65.6134C10.0827 65.6134 10.0778 65.627 10.0778 65.6572V66.7451C10.0778 66.774 10.0778 66.7889 10.1016 66.7889C10.1538 66.7889 10.7021 66.7889 10.797 66.7793C10.8918 66.7696 10.9572 66.7657 10.9998 66.7228C11.0283 66.6948 11.0472 66.6702 11.0613 66.6702C11.0753 66.6702 11.0845 66.6812 11.0845 66.7044C11.0698 66.7778 11.0588 66.8518 11.0516 66.9263C11.0424 67.006 11.0327 67.1566 11.0327 67.1855C11.0327 67.2144 11.0235 67.2608 10.995 67.2608C10.9761 67.2608 10.9669 67.2459 10.9669 67.2227C10.9687 67.1782 10.9623 67.1337 10.948 67.0914C10.9339 67.0358 10.8958 66.9881 10.7351 66.9693C10.6218 66.9548 10.1775 66.95 10.1064 66.95C10.1025 66.9494 10.0985 66.9497 10.0948 66.9509C10.0911 66.9521 10.0877 66.9542 10.085 66.957C10.0822 66.9598 10.0802 66.9632 10.079 66.9669C10.0779 66.9706 10.0776 66.9746 10.0783 66.9784V67.3134C10.0783 67.4504 10.0735 67.9171 10.0783 67.9968C10.0875 68.2661 10.163 68.3186 10.5744 68.3186C10.7144 68.3255 10.8547 68.3107 10.9901 68.2748C11.0457 68.2521 11.0932 68.2136 11.1269 68.1641C11.1606 68.1145 11.1788 68.0562 11.1794 67.9964C11.1886 67.95 11.1982 67.9355 11.2233 67.9355C11.2483 67.9355 11.2518 67.9688 11.2518 67.9964C11.2405 68.1261 11.2216 68.255 11.1952 68.3825C11.1666 68.4871 11.124 68.4871 10.9634 68.4871C10.6516 68.4871 10.4102 68.478 10.2403 68.4727C10.0704 68.4675 9.95667 68.463 9.89521 68.463C9.88599 68.463 9.80741 68.4631 9.71565 68.4683C9.63531 68.4727 9.54004 68.4775 9.47506 68.4775C9.43116 68.4775 9.40877 68.4683 9.40877 68.4447C9.40858 68.4402 9.40932 68.4358 9.41093 68.4317C9.41254 68.4276 9.41499 68.4238 9.41813 68.4207C9.42126 68.4176 9.42502 68.4152 9.42915 68.4135C9.43329 68.4119 9.43771 68.4112 9.44214 68.4114C9.47989 68.4114 9.52994 68.397 9.56989 68.393C9.65023 68.3786 9.6577 68.298 9.67834 68.1802C9.70207 67.8918 9.71013 67.6023 9.70248 67.3129L9.69853 66.6033Z" fill="white"/>
<path d="M15.4168 67.9555C15.4313 68.0974 15.4607 68.3141 15.6298 68.3697C15.717 68.3965 15.808 68.4094 15.8993 68.4078C15.9182 68.4078 15.9322 68.417 15.9322 68.4354C15.9322 68.4538 15.8945 68.4739 15.8471 68.4739C15.7527 68.4739 15.2899 68.4647 15.138 68.4498C15.0384 68.4406 15.02 68.4262 15.02 68.406C15.0199 68.3981 15.0226 68.3903 15.0278 68.3842C15.033 68.3781 15.0401 68.374 15.0481 68.3728C15.0713 68.3675 15.0761 68.3071 15.0669 68.2313L14.8689 66.2043H14.8593L13.857 68.2497C13.7722 68.4248 13.7485 68.463 13.7103 68.463C13.6721 68.463 13.6489 68.4244 13.5685 68.2786C13.4597 68.0808 13.1857 67.5672 13.0821 67.3496C12.9592 67.0953 12.6233 66.4211 12.5526 66.2551H12.5338L12.3735 68.0663C12.3682 68.128 12.3682 68.2029 12.3682 68.2694C12.3677 68.2972 12.3776 68.3242 12.396 68.3451C12.4143 68.366 12.4398 68.3793 12.4675 68.3824C12.5199 68.3965 12.5739 68.4044 12.6282 68.406C12.6422 68.406 12.6611 68.4201 12.6611 68.4336C12.6611 68.463 12.6325 68.4722 12.5856 68.4722C12.4293 68.4722 12.2308 68.4577 12.1979 68.4577C12.165 68.4577 11.9622 68.4722 11.8467 68.4722C11.8028 68.4722 11.776 68.463 11.776 68.4336C11.776 68.4201 11.7949 68.406 11.8199 68.406C11.8612 68.4043 11.9023 68.3995 11.9428 68.3916C12.0798 68.368 12.0846 68.2226 12.1031 68.072L12.4056 65.4557C12.4108 65.4119 12.4288 65.3848 12.453 65.3848C12.4717 65.3855 12.4897 65.3917 12.5048 65.4027C12.5199 65.4137 12.5314 65.429 12.5377 65.4465L13.7951 67.9359L15.005 65.4509C15.0243 65.4123 15.0432 65.3848 15.0709 65.3848C15.0985 65.3848 15.1236 65.418 15.1328 65.4938L15.4168 67.9555Z" fill="white"/>
<path d="M17.709 67.497C17.7166 67.2605 17.7878 67.0303 17.915 66.8305C18.0423 66.6308 18.221 66.4688 18.4325 66.3614C18.2842 66.1771 18.2026 65.9483 18.2007 65.7121C18.2274 65.4656 18.3474 65.2385 18.5363 65.0772C18.7252 64.916 18.9687 64.8327 19.217 64.8443C19.4139 64.8374 19.6096 64.8775 19.7878 64.9613C19.8099 64.9713 19.8281 64.9884 19.8393 65.0099C19.8505 65.0314 19.8542 65.0561 19.8497 65.0799C19.8478 65.2612 19.8368 65.4422 19.8167 65.6224C19.8018 65.6924 19.7878 65.7016 19.7698 65.7016C19.7518 65.7016 19.7408 65.6832 19.7408 65.614C19.7459 65.4667 19.6935 65.323 19.5946 65.2134C19.5342 65.1486 19.4611 65.0968 19.3799 65.0612C19.2986 65.0255 19.2109 65.0069 19.1222 65.0064C19.0408 65.0027 18.9595 65.0163 18.8837 65.0464C18.8079 65.0764 18.7394 65.1221 18.6827 65.1805C18.626 65.2389 18.5823 65.3086 18.5546 65.3851C18.5269 65.4615 18.5158 65.543 18.5221 65.6241C18.5221 65.9914 18.7776 66.297 19.2684 66.8311C19.4295 67.0063 20.0108 67.5465 20.1618 67.6744C20.3163 67.4423 20.4001 67.1705 20.4028 66.892C20.4042 66.8495 20.3972 66.8072 20.3821 66.7674C20.3671 66.7277 20.3443 66.6913 20.315 66.6604C20.2503 66.6068 20.1676 66.5797 20.0837 66.5847C20.0551 66.5847 20.027 66.5754 20.027 66.5522C20.027 66.529 20.0648 66.5185 20.1025 66.5185C20.292 66.5193 20.4812 66.5305 20.6693 66.5522C20.7405 66.5618 20.7541 66.5987 20.7541 66.6464C20.7129 67.0554 20.5501 67.4428 20.2865 67.7588C20.4881 67.9351 20.7065 68.0914 20.9385 68.2255C21.1097 68.3293 21.3026 68.3922 21.5022 68.4094C21.5461 68.4094 21.5685 68.4142 21.5685 68.4427C21.5685 68.4611 21.5307 68.4755 21.4881 68.4755H21.0245C20.6733 68.4755 20.5605 68.4427 20.0411 68.0325C19.8907 68.1949 19.7078 68.3241 19.5042 68.4118C19.3007 68.4995 19.081 68.5437 18.8592 68.5416C18.7145 68.5511 18.5694 68.5314 18.4325 68.4836C18.2956 68.4359 18.1697 68.3611 18.0625 68.2638C17.9552 68.1664 17.8687 68.0485 17.8082 67.917C17.7477 67.7856 17.7144 67.6434 17.7103 67.4988M19.9173 67.9427C19.6539 67.7238 19.1845 67.2781 19.0621 67.1463C18.8639 66.9369 18.6776 66.7167 18.5041 66.4866C18.37 66.57 18.2602 66.6869 18.1857 66.8258C18.1111 66.9647 18.0743 67.1207 18.0791 67.2781C18.0717 67.4068 18.0905 67.5357 18.1343 67.657C18.1781 67.7783 18.246 67.8895 18.3339 67.9841C18.4219 68.0786 18.528 68.1544 18.646 68.2071C18.7641 68.2597 18.8915 68.288 19.0208 68.2903C19.186 68.2957 19.3505 68.2676 19.5044 68.2075C19.6583 68.1474 19.7983 68.0568 19.916 67.941L19.9173 67.9427Z" fill="white"/>
<path d="M23.9128 67.4087C23.9627 67.8768 23.9144 68.3502 23.771 68.7987C23.6143 69.0998 23.3747 69.3501 23.0804 69.5202C23.0212 69.5623 22.96 69.6013 22.8969 69.6371C22.8869 69.6439 22.8751 69.6477 22.8631 69.6481C22.8549 69.6482 22.847 69.6452 22.841 69.6398C22.835 69.6343 22.8312 69.6268 22.8306 69.6187C22.8306 69.5912 22.8538 69.575 22.8969 69.5478C22.9567 69.5104 23.0121 69.4663 23.0619 69.4165C23.3693 69.1056 23.5159 68.8548 23.5159 67.6386V66.2774C23.5159 65.5419 23.5159 65.4114 23.5067 65.2595C23.4974 65.0984 23.4588 65.0231 23.303 64.9907C23.2499 64.9811 23.1962 64.9763 23.1423 64.9763C23.1238 64.9763 23.1045 64.9671 23.1045 64.9478C23.1045 64.9203 23.1282 64.9102 23.18 64.9102C23.3921 64.9102 23.6906 64.9251 23.7148 64.9251C23.7389 64.9251 24.0357 64.9102 24.1779 64.9102C24.2293 64.9102 24.2534 64.9203 24.2534 64.9478C24.2534 64.9671 24.2346 64.9763 24.2157 64.9763C24.176 64.9778 24.1365 64.9826 24.0976 64.9907C23.9698 65.0139 23.9316 65.094 23.922 65.2595C23.9128 65.411 23.9128 65.5419 23.9128 66.2774V67.4087Z" fill="white"/>
<path d="M25.3638 66.6033C25.3638 65.9803 25.3638 65.8673 25.3537 65.7399C25.3445 65.6029 25.3203 65.5368 25.1833 65.5184C25.1365 65.5124 25.0892 65.5093 25.042 65.5092C25.0336 65.5078 25.0259 65.5038 25.02 65.4977C25.0141 65.4916 25.0102 65.4839 25.009 65.4755C25.009 65.4523 25.0275 65.4431 25.0753 65.4431C25.2637 65.4431 25.5337 65.4523 25.5583 65.4523C25.5829 65.4523 26.4569 65.4571 26.5513 65.4523C26.6147 65.4483 26.6777 65.4404 26.7401 65.4287C26.7586 65.4211 26.7777 65.4153 26.7972 65.4111C26.8112 65.4111 26.8156 65.4286 26.8156 65.4479C26.8156 65.4755 26.7924 65.5232 26.7836 65.637C26.7779 65.6742 26.7691 65.8524 26.7594 65.8997C26.7542 65.9181 26.7401 65.9435 26.7217 65.9435C26.7032 65.9435 26.6888 65.9251 26.6888 65.8923C26.6888 65.844 26.6807 65.7961 26.665 65.7504C26.6374 65.6843 26.5939 65.6563 26.3674 65.627C26.2963 65.6178 25.8151 65.6134 25.7673 65.6134C25.7488 65.6134 25.744 65.627 25.744 65.6572V66.7451C25.744 66.774 25.744 66.7889 25.7673 66.7889C25.8199 66.7889 26.3674 66.7889 26.4622 66.7793C26.557 66.7696 26.6229 66.7657 26.665 66.7228C26.6936 66.6948 26.7129 66.6702 26.7265 66.6702C26.7401 66.6702 26.7498 66.6812 26.7498 66.7044C26.7351 66.7778 26.7243 66.8518 26.7173 66.9263C26.7081 67.006 26.698 67.1566 26.698 67.1855C26.698 67.2144 26.6888 67.2608 26.6602 67.2608C26.6418 67.2608 26.6325 67.2459 26.6325 67.2227C26.6344 67.1781 26.6279 67.1336 26.6133 67.0914C26.5988 67.0358 26.5614 66.9881 26.4003 66.9693C26.287 66.9548 25.8427 66.95 25.7716 66.95C25.7484 66.95 25.744 66.964 25.744 66.9784V67.3134C25.744 67.4504 25.7391 67.9171 25.744 67.9968C25.7532 68.2661 25.8287 68.3186 26.2401 68.3186C26.3801 68.3255 26.5203 68.3108 26.6558 68.2748C26.7112 68.2519 26.7585 68.2132 26.7922 68.1638C26.8258 68.1143 26.8442 68.0561 26.845 67.9964C26.8543 67.95 26.8644 67.9355 26.889 67.9355C26.9135 67.9355 26.9175 67.9688 26.9175 67.9964C26.9063 68.1261 26.8875 68.255 26.8613 68.3825C26.8319 68.4871 26.7902 68.4871 26.629 68.4871C26.3178 68.4871 26.0759 68.478 25.9064 68.4727C25.7369 68.4675 25.6228 68.463 25.5609 68.463C25.5517 68.463 25.4731 68.4631 25.3818 68.4683C25.3014 68.4727 25.2062 68.4775 25.1408 68.4775C25.0969 68.4775 25.0745 68.4683 25.0745 68.4447C25.0742 68.4403 25.0749 68.436 25.0764 68.4319C25.078 68.4278 25.0803 68.4241 25.0834 68.4209C25.0864 68.4178 25.0901 68.4153 25.0942 68.4137C25.0982 68.4121 25.1026 68.4113 25.1069 68.4114C25.1456 68.4114 25.1969 68.397 25.2351 68.393C25.3155 68.3786 25.323 68.298 25.3432 68.1802C25.3674 67.8918 25.3756 67.6023 25.3677 67.3129L25.3638 66.6033Z" fill="white"/>
<path d="M30.6804 67.8801H30.6997C30.8038 67.5496 31.1769 66.3916 31.3236 65.8767C31.3516 65.7959 31.3673 65.7113 31.3701 65.6259C31.3701 65.5558 31.3376 65.509 31.148 65.509C31.1382 65.5083 31.1291 65.5042 31.1223 65.4972C31.1155 65.4903 31.1115 65.4811 31.1111 65.4714C31.1111 65.4517 31.1295 65.4429 31.1822 65.4429C31.3947 65.4429 31.5694 65.4516 31.6063 65.4516C31.6357 65.4516 31.8144 65.4429 31.9426 65.4429C31.9799 65.4429 31.9997 65.4516 31.9997 65.4661C32.0005 65.4716 32.0001 65.4772 31.9986 65.4825C31.997 65.4879 31.9943 65.4928 31.9906 65.497C31.9869 65.5011 31.9823 65.5045 31.9772 65.5067C31.9721 65.5089 31.9666 65.51 31.9611 65.5098C31.9137 65.5107 31.8665 65.5168 31.8206 65.5282C31.6972 65.572 31.6309 65.7314 31.551 65.9529C31.3657 66.4612 30.9552 67.7343 30.7897 68.1822C30.6809 68.4786 30.658 68.5259 30.6097 68.5259C30.5614 68.5259 30.5298 68.4742 30.4728 68.3184L29.6592 66.1267C29.5174 66.477 28.9568 67.941 28.8045 68.3157C28.7338 68.4852 28.7052 68.5272 28.6578 68.5272C28.6104 68.5272 28.5823 68.4834 28.4976 68.2111L27.76 65.8356C27.6937 65.6241 27.6503 65.5729 27.5405 65.5339C27.4785 65.5183 27.4148 65.5105 27.3508 65.5107C27.3459 65.5107 27.3411 65.5098 27.3365 65.5079C27.332 65.506 27.3279 65.5032 27.3245 65.4997C27.321 65.4962 27.3183 65.492 27.3165 65.4874C27.3147 65.4829 27.3139 65.478 27.314 65.4731C27.314 65.4534 27.3416 65.4446 27.3798 65.4446C27.5994 65.4446 27.829 65.4534 27.8707 65.4534C27.9124 65.4534 28.0972 65.4446 28.3057 65.4446C28.3628 65.4446 28.3817 65.4534 28.3817 65.4731C28.3813 65.4784 28.3798 65.4837 28.3774 65.4885C28.375 65.4933 28.3717 65.4975 28.3676 65.501C28.3635 65.5045 28.3588 65.5072 28.3537 65.5088C28.3485 65.5105 28.3431 65.5112 28.3378 65.5107C28.2877 65.5081 28.2375 65.516 28.1907 65.5339C28.1731 65.5395 28.1578 65.5509 28.1476 65.5663C28.1374 65.5817 28.1328 65.6001 28.1345 65.6184C28.1508 65.7446 28.1777 65.8693 28.2149 65.991C28.2816 66.2458 28.7066 67.7155 28.7579 67.8819H28.768L29.6373 65.6425C29.6992 65.4827 29.7251 65.4586 29.7514 65.4586C29.7778 65.4586 29.8125 65.5107 29.8643 65.6478L30.6804 67.8801Z" fill="white"/>
<path d="M32.6704 66.6033C32.6704 65.9803 32.6704 65.8673 32.6594 65.7399C32.6502 65.6029 32.627 65.5368 32.49 65.5184C32.4429 65.5125 32.3956 65.5094 32.3482 65.5092C32.3399 65.5077 32.3323 65.5037 32.3264 65.4976C32.3206 65.4915 32.3168 65.4838 32.3157 65.4755C32.3157 65.4523 32.3341 65.4431 32.3807 65.4431C32.5721 65.4431 32.8403 65.4523 32.8636 65.4523C32.893 65.4523 33.7614 65.4571 33.8575 65.4523C33.9207 65.4482 33.9836 65.4403 34.0459 65.4287C34.0643 65.4211 34.0834 65.4152 34.1029 65.4111C34.117 65.4111 34.1214 65.4286 34.1214 65.4479C34.1214 65.4755 34.0981 65.5232 34.0889 65.637C34.0845 65.6742 34.0735 65.8524 34.0643 65.8997C34.0599 65.9181 34.0459 65.9435 34.0274 65.9435C34.009 65.9435 33.9932 65.9251 33.9932 65.8923C33.993 65.8441 33.9853 65.7962 33.9703 65.7504C33.9409 65.6843 33.8992 65.6563 33.6723 65.627C33.6016 65.6178 33.12 65.6134 33.0726 65.6134C33.0541 65.6134 33.0493 65.627 33.0493 65.6572V66.7451C33.0493 66.774 33.0493 66.7889 33.0726 66.7889C33.1248 66.7889 33.6723 66.7889 33.7666 66.7793C33.861 66.7696 33.9286 66.7657 33.9703 66.7228C33.998 66.6948 34.0165 66.6702 34.0318 66.6702C34.0472 66.6702 34.0546 66.6812 34.0546 66.7044C34.04 66.7778 34.0292 66.8519 34.0222 66.9263C34.013 67.006 34.0037 67.1566 34.0037 67.1855C34.0037 67.2144 33.9928 67.2608 33.9651 67.2608C33.9467 67.2608 33.9374 67.2459 33.9374 67.2227C33.9395 67.1781 33.9327 67.1335 33.9177 67.0914C33.9036 67.0358 33.8654 66.9881 33.7061 66.9693C33.5919 66.9548 33.1476 66.95 33.0765 66.95C33.0537 66.95 33.0488 66.964 33.0488 66.9784V67.3134C33.0488 67.4504 33.0444 67.9171 33.0488 67.9968C33.0567 68.2661 33.1318 68.3186 33.5441 68.3186C33.6844 68.3256 33.8249 68.3108 33.9607 68.2748C34.0161 68.252 34.0635 68.2134 34.097 68.1639C34.1305 68.1144 34.1486 68.0561 34.1491 67.9964C34.1596 67.95 34.1675 67.9355 34.1929 67.9355C34.2184 67.9355 34.2206 67.9688 34.2206 67.9964C34.2096 68.1261 34.191 68.255 34.1649 68.3825C34.1354 68.4871 34.0924 68.4871 33.9335 68.4871C33.6205 68.4871 33.3799 68.478 33.2082 68.4727C33.0366 68.4675 32.9259 68.463 32.864 68.463C32.8548 68.463 32.7762 68.4631 32.6849 68.4683C32.6032 68.4727 32.5093 68.4775 32.4443 68.4775C32.4004 68.4775 32.3767 68.4683 32.3767 68.4447C32.3766 68.4402 32.3775 68.4359 32.3792 68.4318C32.3808 68.4277 32.3833 68.424 32.3865 68.4209C32.3897 68.4178 32.3934 68.4153 32.3975 68.4137C32.4017 68.412 32.4061 68.4113 32.4105 68.4114C32.4474 68.4114 32.4983 68.397 32.5387 68.393C32.619 68.3786 32.6265 68.298 32.6485 68.1802C32.6713 67.8917 32.6791 67.6023 32.6717 67.3129L32.6704 66.6033Z" fill="white"/>
<path d="M35.6514 67.3186C35.6514 67.9083 35.662 68.1504 35.7392 68.2187C35.8038 68.2853 35.9658 68.3146 36.2915 68.3146C36.511 68.3146 36.6928 68.3089 36.7925 68.1916C36.8439 68.1257 36.8778 68.048 36.8913 67.9657C36.8961 67.9381 36.9097 67.914 36.9351 67.914C36.9606 67.914 36.9646 67.9323 36.9646 67.9744C36.9544 68.1094 36.9337 68.2435 36.9027 68.3754C36.875 68.4695 36.8588 68.484 36.6392 68.484C36.3429 68.484 36.1102 68.4788 35.9175 68.4696C35.7248 68.4604 35.5856 68.4604 35.4635 68.4604C35.4451 68.4604 35.3757 68.4604 35.2941 68.4656C35.2124 68.4709 35.1185 68.4748 35.0517 68.4748C35.0078 68.4748 34.9872 68.4656 34.9872 68.4419C34.9869 68.4376 34.9876 68.4333 34.9891 68.4292C34.9907 68.4251 34.9931 68.4213 34.9961 68.4182C34.9992 68.4151 35.0028 68.4126 35.0069 68.411C35.0109 68.4094 35.0153 68.4086 35.0197 68.4087C35.0628 68.4071 35.1056 68.4009 35.1474 68.3903C35.226 68.3706 35.2353 68.2953 35.2554 68.1775C35.278 67.8891 35.2856 67.5998 35.2783 67.3107V66.6045C35.2783 65.9815 35.2783 65.8681 35.2691 65.7412C35.2598 65.6041 35.237 65.538 35.0991 65.5196C35.0521 65.5137 35.0048 65.5106 34.9573 65.5104C34.9488 65.5091 34.9409 65.5051 34.9348 65.4991C34.9286 65.493 34.9246 65.4852 34.9231 65.4767C34.9231 65.4535 34.9429 65.4443 34.9912 65.4443C35.1791 65.4443 35.4398 65.4535 35.4627 65.4535C35.4855 65.4535 35.7932 65.4443 35.921 65.4443C35.9627 65.4443 35.9873 65.4535 35.9873 65.4767C35.9859 65.4847 35.9818 65.492 35.9756 65.4974C35.9695 65.5027 35.9616 65.5058 35.9535 65.5061C35.9258 65.5061 35.8657 65.5105 35.8174 65.5144C35.694 65.538 35.6712 65.5997 35.6602 65.7412C35.6558 65.8681 35.6558 65.9815 35.6558 66.6045L35.6514 67.3186Z" fill="white"/>
<path d="M38.1802 67.3186C38.1802 67.9083 38.1895 68.1504 38.265 68.2187C38.3308 68.2853 38.4915 68.3146 38.8173 68.3146C39.0368 68.3146 39.2199 68.3089 39.3186 68.1916C39.3702 68.1257 39.4046 68.0481 39.4188 67.9657C39.4218 67.9381 39.4372 67.914 39.4604 67.914C39.4837 67.914 39.4894 67.9323 39.4894 67.9744C39.4794 68.1094 39.4588 68.2435 39.428 68.3754C39.3986 68.4695 39.3841 68.484 39.1645 68.484C38.8651 68.484 38.6351 68.4788 38.4393 68.4696C38.2509 68.4656 38.1091 68.4604 37.9858 68.4604C37.9673 68.4604 37.898 68.4604 37.8159 68.4656C37.7338 68.4709 37.6403 68.4748 37.5753 68.4748C37.5314 68.4748 37.509 68.4656 37.509 68.4419C37.5088 68.4375 37.5095 68.4331 37.5112 68.4289C37.5128 68.4247 37.5153 68.421 37.5185 68.4178C37.5217 68.4147 37.5255 68.4123 37.5297 68.4107C37.5339 68.4092 37.5383 68.4085 37.5428 68.4087C37.5856 68.4072 37.6282 68.4011 37.6697 68.3903C37.7513 68.3706 37.7575 68.2953 37.779 68.1775C37.8019 67.8892 37.8097 67.5998 37.8023 67.3107V66.6045C37.8023 65.9815 37.8022 65.8681 37.7926 65.7412C37.7834 65.6041 37.7592 65.538 37.6231 65.5196C37.5761 65.5138 37.5287 65.5107 37.4813 65.5104C37.473 65.509 37.4654 65.5049 37.4596 65.4988C37.4538 65.4928 37.45 65.485 37.4489 65.4767C37.4489 65.4535 37.4673 65.4443 37.5138 65.4443C37.7035 65.4443 37.9629 65.4535 37.9862 65.4535C38.0095 65.4535 38.3177 65.4443 38.4445 65.4443C38.4884 65.4443 38.5108 65.4535 38.5108 65.4767C38.5095 65.4846 38.5056 65.4918 38.4997 65.4971C38.4938 65.5024 38.4863 65.5056 38.4784 65.5061C38.4507 65.5061 38.3906 65.5105 38.3409 65.5144C38.2176 65.538 38.1943 65.5997 38.1851 65.7412C38.1807 65.8681 38.1807 65.9815 38.1807 66.6045L38.1802 67.3186Z" fill="white"/>
<path d="M40.3306 66.6033C40.3306 65.9803 40.3306 65.8673 40.3213 65.7399C40.3121 65.6029 40.2871 65.5368 40.1501 65.5184C40.1035 65.5124 40.0566 65.5093 40.0096 65.5092C40.0011 65.508 39.9931 65.5041 39.987 65.498C39.9809 65.4919 39.977 65.484 39.9758 65.4755C39.9758 65.4523 39.9943 65.4431 40.0421 65.4431C40.23 65.4431 40.5005 65.4523 40.525 65.4523C40.5496 65.4523 41.4246 65.4571 41.5186 65.4523C41.5822 65.4481 41.6455 65.4402 41.7082 65.4287C41.7262 65.4212 41.7449 65.4153 41.764 65.4111C41.778 65.4111 41.7837 65.4286 41.7837 65.4479C41.7691 65.5103 41.7578 65.5734 41.7499 65.637C41.7455 65.6742 41.7359 65.8524 41.7266 65.8997C41.7205 65.9181 41.7078 65.9435 41.688 65.9435C41.6683 65.9435 41.656 65.9251 41.656 65.8923C41.6557 65.8441 41.6478 65.7962 41.6327 65.7504C41.6033 65.6843 41.5603 65.6563 41.3329 65.627C41.2622 65.6178 40.7792 65.6134 40.7331 65.6134C40.7147 65.6134 40.7099 65.627 40.7099 65.6572V66.7451C40.7099 66.774 40.7099 66.7889 40.7331 66.7889C40.7854 66.7889 41.3329 66.7889 41.429 66.7793C41.5251 66.7696 41.5879 66.7657 41.6327 66.7228C41.6604 66.6948 41.6788 66.6702 41.6924 66.6702C41.706 66.6702 41.7157 66.6812 41.7157 66.7044C41.701 66.7778 41.6902 66.8518 41.6832 66.9263C41.674 67.006 41.6634 67.1566 41.6634 67.1855C41.6634 67.2144 41.656 67.2608 41.6261 67.2608C41.6077 67.2608 41.5985 67.2459 41.5985 67.2227C41.6004 67.1782 41.5941 67.1337 41.58 67.0914C41.5647 67.0358 41.5273 66.9881 41.3671 66.9693C41.2547 66.9548 40.8087 66.95 40.7375 66.95C40.7147 66.95 40.7099 66.964 40.7099 66.9784V67.3134C40.7099 67.4504 40.7037 67.9171 40.7099 67.9968C40.7191 68.2661 40.7946 68.3186 41.2069 68.3186C41.3466 68.3254 41.4865 68.3106 41.6217 68.2748C41.6772 68.2519 41.7246 68.2133 41.7583 68.1639C41.792 68.1144 41.8105 68.0562 41.8114 67.9964C41.8206 67.95 41.8298 67.9355 41.8553 67.9355C41.8808 67.9355 41.8847 67.9688 41.8847 67.9964C41.8731 68.1261 41.8541 68.255 41.8276 68.3825C41.7982 68.4871 41.7569 68.4871 41.5963 68.4871C41.2846 68.4871 41.0426 68.478 40.8727 68.4727C40.7028 68.4675 40.5887 68.463 40.5268 68.463C40.5176 68.463 40.439 68.4631 40.3477 68.4683C40.2678 68.4727 40.1721 68.4775 40.1071 68.4775C40.0632 68.4775 40.0408 68.4683 40.0408 68.4447C40.0406 68.4403 40.0412 68.436 40.0427 68.432C40.0442 68.4279 40.0466 68.4242 40.0496 68.4211C40.0526 68.418 40.0562 68.4155 40.0602 68.4138C40.0642 68.4121 40.0685 68.4113 40.0729 68.4114C40.1159 68.4074 40.1587 68.4013 40.201 68.393C40.2814 68.3786 40.2888 68.298 40.309 68.1802C40.3333 67.8918 40.3416 67.6023 40.3336 67.3129L40.3306 66.6033Z" fill="white"/>
<path d="M42.9353 66.6038C42.9353 65.9808 42.9353 65.8674 42.9243 65.7404C42.9151 65.6038 42.8918 65.5373 42.7549 65.5189C42.7079 65.5127 42.6605 65.5095 42.6131 65.5093C42.6048 65.5077 42.5972 65.5036 42.5914 65.4976C42.5856 65.4915 42.5818 65.4839 42.5806 65.4756C42.5806 65.4524 42.599 65.4432 42.6469 65.4432C42.8365 65.4432 43.1144 65.4524 43.139 65.4524C43.1803 65.4524 43.5311 65.4432 43.6571 65.4432C43.927 65.4232 44.1967 65.4841 44.4315 65.6183C44.5187 65.6813 44.5903 65.7634 44.6406 65.8584C44.6909 65.9533 44.7187 66.0586 44.7217 66.166C44.7134 66.3473 44.663 66.5242 44.5743 66.6828C44.4857 66.8413 44.3614 66.9772 44.2111 67.0797C44.5505 67.5039 44.8389 67.8677 45.0799 68.1168C45.1953 68.2623 45.3597 68.3611 45.5427 68.3948C45.5909 68.4046 45.64 68.4096 45.6893 68.4097C45.6988 68.4091 45.7082 68.4123 45.7154 68.4185C45.7227 68.4247 45.7271 68.4335 45.7279 68.443C45.7279 68.4666 45.7047 68.4758 45.6292 68.4758H45.3684C45.2162 68.4903 45.063 68.4622 44.9259 68.3948C44.6987 68.2376 44.5047 68.0374 44.3551 67.8056C44.1795 67.5867 43.9969 67.3297 43.9073 67.2215C43.9006 67.213 43.8919 67.2063 43.8819 67.202C43.872 67.1977 43.8611 67.196 43.8502 67.197L43.3195 67.1878C43.3006 67.1878 43.2914 67.197 43.2914 67.2215V67.3157C43.2914 67.7018 43.2914 68.0139 43.3116 68.1781C43.3256 68.2959 43.3484 68.3712 43.4766 68.3914C43.538 68.4012 43.5998 68.4073 43.6619 68.4097C43.6664 68.4091 43.671 68.4095 43.6752 68.411C43.6795 68.4125 43.6834 68.4149 43.6865 68.4182C43.6897 68.4214 43.6921 68.4254 43.6934 68.4297C43.6948 68.434 43.6951 68.4385 43.6944 68.443C43.6944 68.4614 43.6742 68.4758 43.6281 68.4758C43.4011 68.4758 43.1377 68.4614 43.1171 68.4614C43.1127 68.4614 42.8348 68.4758 42.7066 68.4758C42.6627 68.4758 42.6385 68.4666 42.6385 68.443C42.6385 68.4385 42.6393 68.4341 42.641 68.43C42.6427 68.4259 42.6453 68.4221 42.6485 68.419C42.6517 68.4159 42.6555 68.4135 42.6597 68.4119C42.6638 68.4103 42.6683 68.4096 42.6728 68.4097C42.716 68.4082 42.759 68.402 42.801 68.3914C42.8809 68.3712 42.8888 68.2959 42.9103 68.1781C42.9335 67.8898 42.9414 67.6004 42.934 67.3113L42.9353 66.6038ZM43.2931 66.9422C43.2928 66.9526 43.2952 66.963 43.3001 66.9722C43.305 66.9815 43.3123 66.9892 43.3212 66.9947C43.4701 67.0398 43.6253 67.0606 43.7809 67.0565C43.8897 67.0646 43.9984 67.0396 44.0926 66.9847C44.1811 66.9104 44.2502 66.8158 44.294 66.7091C44.3378 66.6023 44.355 66.4866 44.3441 66.3717C44.3584 66.271 44.3502 66.1684 44.3201 66.0711C44.29 65.9739 44.2388 65.8845 44.1702 65.8093C44.1015 65.734 44.0171 65.6748 43.9229 65.6358C43.8286 65.5969 43.7269 65.579 43.625 65.5837C43.5253 65.5833 43.4258 65.5911 43.3273 65.6069C43.3175 65.6105 43.309 65.617 43.3029 65.6255C43.2968 65.634 43.2934 65.6442 43.2931 65.6546V66.9422Z" fill="white"/>
<path d="M46.4971 67.4323C46.5098 67.2898 46.4792 67.1467 46.4093 67.0217C46.3773 66.9604 45.814 66.0694 45.6718 65.8575C45.6009 65.7434 45.5083 65.6442 45.3991 65.5655C45.3456 65.5339 45.2855 65.5147 45.2235 65.5095C45.2131 65.5096 45.2031 65.5058 45.1954 65.4988C45.1877 65.4918 45.183 65.4822 45.1823 65.4718C45.1823 65.4521 45.1963 65.4434 45.2327 65.4434C45.3131 65.4434 45.6279 65.4526 45.645 65.4526C45.6726 65.4526 45.8425 65.4434 46.0045 65.4434C46.0506 65.4434 46.0616 65.4526 46.0616 65.4718C46.0616 65.4911 46.0322 65.5003 45.9936 65.5134C45.979 65.5176 45.9661 65.5264 45.9569 65.5384C45.9477 65.5505 45.9427 65.5653 45.9426 65.5804C45.9478 65.6363 45.9675 65.6899 45.9997 65.7359L46.7562 66.9844C46.8409 66.815 47.3607 65.9574 47.4362 65.8252C47.478 65.7634 47.5025 65.6916 47.5073 65.6172C47.5109 65.5948 47.5061 65.5719 47.4939 65.5528C47.4817 65.5337 47.4629 65.5197 47.441 65.5134C47.4024 65.5051 47.3791 65.4863 47.3791 65.4666C47.3791 65.4469 47.4024 65.4438 47.4454 65.4438C47.5539 65.4438 47.7001 65.453 47.7343 65.453C47.762 65.453 48.0596 65.4438 48.14 65.4438C48.1694 65.4438 48.1926 65.453 48.1926 65.4666C48.1921 65.473 48.1904 65.4791 48.1874 65.4848C48.1845 65.4904 48.1805 65.4955 48.1756 65.4996C48.1707 65.5037 48.165 65.5067 48.1588 65.5086C48.1527 65.5104 48.1463 65.511 48.14 65.5104C48.0724 65.512 48.0062 65.5301 47.9472 65.5629C47.8651 65.6137 47.7943 65.6807 47.7391 65.7599C47.6021 65.9197 47.0169 66.8632 46.9304 67.0331C46.879 67.16 46.861 67.2978 46.8782 67.4336V67.7773C46.8782 67.8434 46.8782 68.0142 46.8936 68.1779C46.9015 68.2957 46.9304 68.371 47.0542 68.3907C47.117 68.4006 47.1804 68.4067 47.2439 68.4091C47.2483 68.4089 47.2527 68.4097 47.2567 68.4114C47.2608 68.413 47.2644 68.4154 47.2675 68.4186C47.2705 68.4217 47.2729 68.4254 47.2744 68.4295C47.276 68.4336 47.2767 68.438 47.2764 68.4424C47.2764 68.4607 47.2518 68.4752 47.2101 68.4752C46.977 68.4752 46.7087 68.4607 46.6855 68.4607C46.6622 68.4607 46.4019 68.4752 46.2785 68.4752C46.2324 68.4752 46.2135 68.466 46.2135 68.4424C46.2131 68.438 46.2137 68.4335 46.2152 68.4294C46.2167 68.4252 46.219 68.4214 46.2221 68.4183C46.2252 68.4151 46.2289 68.4127 46.2331 68.4111C46.2372 68.4095 46.2416 68.4088 46.246 68.4091C46.2877 68.4076 46.3291 68.4014 46.3694 68.3907C46.4545 68.371 46.4818 68.2957 46.4914 68.1779C46.5006 68.0142 46.5006 67.8434 46.5006 67.7773L46.4971 67.4323Z" fill="white"/>
<path d="M11.8559 70.6844C11.913 70.5281 11.9314 70.5005 11.9599 70.5005C11.9885 70.5005 12.0069 70.5241 12.064 70.6699C12.1351 70.8498 12.8766 72.7963 13.1651 73.5121C13.3354 73.9324 13.4724 74.0077 13.5716 74.0375C13.6327 74.0566 13.6964 74.0661 13.7604 74.0655C13.7889 74.0655 13.8078 74.0703 13.8078 74.094C13.8078 74.1176 13.7639 74.1316 13.7134 74.1316C13.6423 74.1316 13.2972 74.1316 12.9714 74.1224C12.8836 74.118 12.8296 74.1181 12.8296 74.0887C12.8296 74.0704 12.8441 74.0607 12.8626 74.0563C12.8907 74.0471 12.9192 74.0038 12.8907 73.9285L12.4516 72.7692C12.4486 72.7603 12.4426 72.7527 12.4346 72.7477C12.4266 72.7426 12.4171 72.7405 12.4077 72.7416H11.3914C11.3806 72.7416 11.37 72.7452 11.3615 72.7519C11.353 72.7585 11.347 72.7679 11.3444 72.7784L11.0604 73.6128C11.0214 73.7138 10.9992 73.8204 10.9945 73.9285C10.9945 74.0235 11.0937 74.0651 11.1736 74.0651H11.2211C11.2544 74.0651 11.2685 74.0743 11.2685 74.0936C11.2685 74.122 11.2399 74.1312 11.1978 74.1312C11.0841 74.1312 10.8808 74.1172 10.8286 74.1172C10.7763 74.1172 10.5169 74.1312 10.2947 74.1312C10.2332 74.1312 10.2069 74.122 10.2069 74.0936C10.2069 74.0743 10.2258 74.0651 10.2508 74.0651C10.2837 74.0651 10.35 74.0603 10.3878 74.0559C10.6051 74.0274 10.6995 73.8479 10.7829 73.6128L11.8559 70.6844ZM12.3476 72.5695C12.3713 72.5695 12.3713 72.5555 12.3669 72.5371L11.9174 71.264C11.8936 71.1922 11.8699 71.1922 11.8462 71.264L11.4305 72.5371C11.4213 72.5603 11.4305 72.5695 11.4445 72.5695H12.3476Z" fill="white"/>
<path d="M14.0672 74.0724C14.0106 74.0444 14.0057 74.0308 14.0057 73.9218C14.0057 73.7243 14.0246 73.5636 14.029 73.4971C14.029 73.4533 14.0387 73.431 14.0624 73.431C14.0861 73.431 14.1001 73.4454 14.1001 73.4783C14.0988 73.5274 14.1035 73.5765 14.1142 73.6245C14.1622 73.7555 14.2537 73.8664 14.3734 73.9386C14.4932 74.0108 14.634 74.04 14.7727 74.0216C15.1836 74.0216 15.3961 73.7904 15.3961 73.4879C15.3961 73.2007 15.2403 73.0646 14.8719 72.7909L14.6832 72.6495C14.234 72.3142 14.0874 72.0694 14.0874 71.7914C14.0874 71.3203 14.4606 71.0371 15.0094 71.0371C15.1539 71.0374 15.298 71.0532 15.4392 71.0844C15.4868 71.097 15.536 71.1032 15.5854 71.1027C15.6183 71.1027 15.6293 71.1071 15.6293 71.1303C15.6156 71.2717 15.6091 71.4138 15.6099 71.5559C15.6099 71.6167 15.6055 71.6435 15.577 71.6435C15.5485 71.6435 15.5436 71.6255 15.5393 71.5931C15.5282 71.5244 15.5075 71.4577 15.4778 71.3947C15.4493 71.3479 15.3123 71.1964 14.9391 71.1964C14.6366 71.1964 14.3859 71.3479 14.3859 71.6308C14.3859 71.8847 14.5141 72.0314 14.9251 72.3094L15.0432 72.3886C15.5485 72.7331 15.7237 73.0116 15.7237 73.3548C15.7255 73.4929 15.6906 73.6291 15.6225 73.7493C15.5544 73.8696 15.4555 73.9697 15.336 74.0395C15.1321 74.1449 14.9036 74.1937 14.6744 74.1809C14.4672 74.1857 14.2613 74.1484 14.069 74.0715" fill="white"/>
<path d="M16.5438 74.0724C16.4871 74.0444 16.4823 74.0308 16.4823 73.9218C16.4823 73.7243 16.5012 73.5636 16.506 73.4971C16.506 73.4533 16.5157 73.431 16.5394 73.431C16.5631 73.431 16.5771 73.4454 16.5771 73.4783C16.5759 73.5274 16.5807 73.5765 16.5916 73.6245C16.6397 73.7555 16.7311 73.8664 16.8509 73.9386C16.9706 74.0108 17.1115 74.04 17.2502 74.0216C17.6611 74.0216 17.874 73.7904 17.874 73.4879C17.874 73.2007 17.7177 73.0646 17.3472 72.7909L17.1584 72.6495C16.7093 72.3142 16.5626 72.0694 16.5626 71.7914C16.5626 71.3203 16.9367 71.0371 17.4846 71.0371C17.6293 71.0374 17.7735 71.0532 17.9148 71.0844C17.9628 71.0971 18.0123 71.1033 18.0619 71.1027C18.0944 71.1027 18.1058 71.1071 18.1058 71.1303C18.1058 71.1535 18.0869 71.2809 18.0869 71.5559C18.0869 71.6167 18.0812 71.6435 18.054 71.6435C18.0268 71.6435 18.0206 71.6255 18.0163 71.5931C18.0051 71.5244 17.9842 71.4576 17.9543 71.3947C17.9258 71.3479 17.7888 71.1964 17.4157 71.1964C17.1132 71.1964 16.8629 71.3479 16.8629 71.6308C16.8629 71.8847 16.9907 72.0314 17.4016 72.3094L17.5202 72.3886C18.0264 72.7331 18.2006 73.0116 18.2006 73.3548C18.2024 73.493 18.1674 73.6292 18.0993 73.7494C18.0311 73.8697 17.9322 73.9698 17.8125 74.0395C17.6087 74.1449 17.3802 74.1938 17.1509 74.1809C16.9439 74.1856 16.7381 74.1484 16.546 74.0715" fill="white"/>
<path d="M20.5481 71.0428C20.7577 71.023 20.969 71.0473 21.1686 71.1141C21.3681 71.1808 21.5514 71.2886 21.7066 71.4304C21.8617 71.5723 21.9853 71.7449 22.0694 71.9373C22.1534 72.1298 22.196 72.3377 22.1945 72.5476C22.1986 72.7659 22.1581 72.9827 22.0753 73.1849C21.9926 73.387 21.8694 73.5703 21.7133 73.7233C21.5571 73.8764 21.3713 73.9962 21.1672 74.0752C20.9631 74.1543 20.745 74.191 20.5262 74.1832C20.3136 74.1947 20.1009 74.1621 19.9015 74.0876C19.7021 74.013 19.5204 73.8981 19.3677 73.75C19.2151 73.6019 19.0949 73.4239 19.0147 73.2272C18.9345 73.0305 18.8961 72.8194 18.9018 72.6071C18.9045 72.3955 18.9497 72.1866 19.0345 71.9927C19.1194 71.7987 19.2423 71.6236 19.3961 71.4777C19.5498 71.3319 19.7312 71.2182 19.9297 71.1432C20.1281 71.0683 20.3396 71.0337 20.5517 71.0415M20.646 74.0159C21.0196 74.0159 21.773 73.8185 21.773 72.6587C21.773 71.6955 21.1852 71.1925 20.528 71.1925C19.833 71.1925 19.332 71.6264 19.332 72.4989C19.3285 73.4319 19.8905 74.0168 20.6421 74.0168L20.646 74.0159Z" fill="white"/>
<path d="M23.2258 73.7524C23.0583 73.604 22.926 73.4205 22.8385 73.2149C22.7509 73.0093 22.7103 72.7869 22.7196 72.5637C22.7273 72.1521 22.8953 71.7596 23.188 71.4692C23.3597 71.3168 23.5604 71.2002 23.7781 71.1266C23.9958 71.0529 24.2262 71.0235 24.4555 71.0402C24.658 71.0407 24.8603 71.0567 25.0604 71.0879C25.2005 71.1181 25.3425 71.1387 25.4854 71.1496C25.5293 71.1496 25.5372 71.168 25.5372 71.1912C25.5372 71.2249 25.528 71.2713 25.5188 71.4175C25.5144 71.5489 25.5144 71.7713 25.5096 71.8282C25.5047 71.8851 25.4858 71.9131 25.4617 71.9131C25.4376 71.9131 25.4292 71.8847 25.4292 71.8282C25.4308 71.7529 25.4158 71.6781 25.3855 71.6091C25.3552 71.5401 25.3102 71.4784 25.2536 71.4285C25.0119 71.2684 24.725 71.1901 24.4353 71.2052C24.0991 71.1713 23.7631 71.2714 23.5006 71.4837C23.3653 71.6202 23.2618 71.7848 23.1973 71.9657C23.1328 72.1465 23.109 72.3394 23.1274 72.5304C23.1278 72.7246 23.1671 72.9166 23.2431 73.0954C23.319 73.2741 23.4301 73.4359 23.5696 73.5712C23.7092 73.7065 23.8745 73.8126 24.0558 73.8833C24.2371 73.9539 24.4308 73.9877 24.6254 73.9826C24.7463 74.0004 24.8697 73.993 24.9876 73.9606C25.1055 73.9283 25.2154 73.8718 25.3102 73.7948C25.3914 73.6984 25.4467 73.583 25.4709 73.4595C25.481 73.4157 25.4858 73.4026 25.5148 73.4026C25.5333 73.4026 25.5526 73.4302 25.5526 73.4595C25.5301 73.6327 25.4969 73.8043 25.4534 73.9734C25.4301 74.0488 25.42 74.061 25.3498 74.0912C25.1052 74.1598 24.8515 74.19 24.5977 74.181C24.1029 74.2158 23.6132 74.0625 23.2271 73.7519" fill="white"/>
<path d="M26.9175 72.9657C26.9175 73.3518 26.9175 73.6662 26.9359 73.8325C26.95 73.9503 26.9636 74.0256 27.0869 74.0449C27.1496 74.0545 27.2128 74.0606 27.2761 74.0632C27.2806 74.0631 27.2851 74.0639 27.2893 74.0656C27.2934 74.0673 27.2972 74.0698 27.3003 74.073C27.3035 74.0762 27.3059 74.08 27.3075 74.0842C27.3091 74.0884 27.3097 74.0929 27.3095 74.0974C27.3095 74.1158 27.2906 74.1298 27.2428 74.1298C27.0114 74.1298 26.7414 74.1158 26.723 74.1158C26.7045 74.1158 26.4389 74.1298 26.3125 74.1298C26.2686 74.1298 26.2462 74.1202 26.2462 74.0974C26.246 74.093 26.2466 74.0886 26.2481 74.0845C26.2497 74.0803 26.252 74.0765 26.2551 74.0733C26.2581 74.0701 26.2618 74.0676 26.2658 74.0659C26.2699 74.0641 26.2743 74.0632 26.2787 74.0632C26.3218 74.0617 26.3647 74.0556 26.4065 74.0449C26.4868 74.0256 26.5008 73.9503 26.5144 73.8325C26.5346 73.6679 26.5395 73.3509 26.5395 72.9657V72.2586C26.5395 71.6356 26.5395 71.5235 26.5294 71.3957C26.5201 71.2591 26.4855 71.1969 26.3977 71.1768C26.3554 71.1685 26.3125 71.1638 26.2695 71.1628C26.261 71.162 26.253 71.1581 26.2471 71.1519C26.2412 71.1457 26.2378 71.1376 26.2374 71.1291C26.2374 71.1059 26.2559 71.0967 26.3024 71.0967C26.4398 71.0967 26.7006 71.1054 26.7239 71.1054C26.7471 71.1054 27.0123 71.0967 27.1405 71.0967C27.1844 71.0967 27.2059 71.1054 27.2059 71.1291C27.2045 71.1374 27.2005 71.1452 27.1946 71.1512C27.1886 71.1572 27.1809 71.1613 27.1726 71.1628C27.1379 71.162 27.1033 71.1651 27.0694 71.172C26.9552 71.1952 26.932 71.253 26.9227 71.3935C26.9183 71.5213 26.9183 71.6334 26.9183 72.2564L26.9175 72.9657Z" fill="white"/>
<path d="M29.0107 71.1788C29.0621 71.0475 29.0814 71.0234 29.1095 71.0234C29.1534 71.0234 29.1665 71.0803 29.2091 71.1697C29.2846 71.3395 29.9511 72.9936 30.2066 73.6021C30.3581 73.9598 30.47 74.0115 30.5609 74.0399C30.6147 74.0555 30.6704 74.0633 30.7264 74.0631C30.7501 74.0631 30.7782 74.0723 30.7782 74.0968C30.7782 74.1213 30.7312 74.1288 30.6834 74.1288C30.6215 74.1288 30.315 74.1288 30.0248 74.1196C29.9445 74.1148 29.8778 74.1148 29.8778 74.0912C29.8778 74.0675 29.8887 74.0719 29.9072 74.0627C29.9174 74.0588 29.9266 74.0528 29.9342 74.045C29.9419 74.0373 29.9477 74.0279 29.9513 74.0176C29.9549 74.0074 29.9562 73.9964 29.9551 73.9856C29.954 73.9748 29.9505 73.9643 29.9449 73.955L29.5709 73.0356C29.5617 73.0172 29.5573 73.0128 29.534 73.0128H28.5743C28.5644 73.0125 28.5548 73.0154 28.5468 73.0212C28.5388 73.027 28.5331 73.0353 28.5304 73.0448L28.2947 73.6862C28.2592 73.7719 28.2383 73.8629 28.2327 73.9554C28.2327 74.0347 28.3034 74.0631 28.3745 74.0631H28.4136C28.4457 74.0631 28.4553 74.0767 28.4553 74.0968C28.4553 74.117 28.4316 74.1288 28.3939 74.1288C28.2946 74.1288 28.0677 74.1148 28.0207 74.1148C27.9737 74.1148 27.77 74.1288 27.6001 74.1288C27.5474 74.1288 27.5198 74.1196 27.5198 74.0968C27.5203 74.0875 27.5246 74.0787 27.5315 74.0724C27.5385 74.0661 27.5477 74.0627 27.5571 74.0631C27.5861 74.0631 27.6475 74.0583 27.6804 74.0539C27.8692 74.0307 27.95 73.8893 28.0317 73.6862L29.0107 71.1788ZM29.4734 72.8482C29.4919 72.8482 29.4919 72.839 29.4875 72.8193L29.077 71.7204C29.0528 71.6596 29.0291 71.6596 29.0059 71.7204L28.6173 72.8193C28.6125 72.839 28.6173 72.8482 28.6327 72.8482H29.4734Z" fill="white"/>
<path d="M31.9315 72.9658C31.9315 73.352 31.9315 73.6664 31.9517 73.8327C31.964 73.9505 31.9824 74.0258 32.1102 74.0451C32.1731 74.0549 32.2366 74.0611 32.3003 74.0635C32.3293 74.0635 32.3328 74.0827 32.3328 74.0976C32.3328 74.1125 32.3143 74.1296 32.2665 74.1296C32.0395 74.1296 31.7756 74.1156 31.7524 74.1156C31.7291 74.1156 31.4451 74.1296 31.3221 74.1296C31.2747 74.1296 31.2558 74.1204 31.2558 74.0976C31.2557 74.0934 31.2564 74.0892 31.2581 74.0854C31.2597 74.0815 31.2621 74.078 31.2652 74.0752C31.2683 74.0724 31.2719 74.0703 31.2759 74.069C31.2799 74.0677 31.2842 74.0673 31.2883 74.0678C31.33 74.0662 31.3713 74.06 31.4117 74.0494C31.4964 74.0311 31.521 73.9501 31.5351 73.8305C31.5535 73.6664 31.5535 73.3489 31.5535 72.9637V71.2799L30.9538 71.2908C30.6926 71.2943 30.5942 71.3228 30.5323 71.4169C30.5059 71.457 30.4837 71.4997 30.466 71.5443C30.4568 71.5785 30.4428 71.582 30.4243 71.582C30.4161 71.5813 30.4085 71.5775 30.4031 71.5714C30.3976 71.5653 30.3947 71.5573 30.3949 71.5491C30.3949 71.5053 30.4805 71.149 30.4849 71.1153C30.495 71.0921 30.5139 71.0396 30.5288 71.0396C30.5891 71.0597 30.6507 71.0756 30.7132 71.0873C30.8313 71.1008 30.9916 71.1057 31.0394 71.1057H32.6102C32.7093 71.1064 32.8083 71.1003 32.9066 71.0873C32.968 71.0781 33.0067 71.068 33.0251 71.068C33.0436 71.068 33.0436 71.0916 33.0436 71.1149C33.0436 71.2379 33.0295 71.5255 33.0295 71.5723C33.0295 71.6052 33.0111 71.624 32.9909 71.624C32.9707 71.624 32.9632 71.61 32.9588 71.5539L32.954 71.5102C32.9399 71.3871 32.8491 71.2978 32.4526 71.2886L31.9328 71.2777L31.9315 72.9658Z" fill="white"/>
<path d="M34.2857 72.9657C34.2857 73.3518 34.2857 73.6662 34.3041 73.8325C34.3182 73.9503 34.3318 74.0256 34.4551 74.0449C34.518 74.0545 34.5813 74.0606 34.6448 74.0632C34.6491 74.0633 34.6534 74.0642 34.6573 74.066C34.6613 74.0678 34.6648 74.0703 34.6677 74.0735C34.6706 74.0768 34.6728 74.0806 34.6741 74.0847C34.6755 74.0888 34.676 74.0931 34.6755 74.0974C34.6755 74.1158 34.6566 74.1298 34.6105 74.1298C34.3792 74.1298 34.1092 74.1158 34.0903 74.1158C34.0714 74.1158 33.8067 74.1298 33.6785 74.1298C33.6368 74.1298 33.6118 74.1202 33.6118 74.0974C33.6116 74.0929 33.6124 74.0883 33.614 74.0841C33.6157 74.0799 33.6182 74.0761 33.6214 74.0729C33.6246 74.0696 33.6284 74.0671 33.6327 74.0655C33.6369 74.0638 33.6415 74.0631 33.646 74.0632C33.6889 74.0618 33.7314 74.0557 33.7729 74.0449C33.855 74.0256 33.8686 73.9503 33.8826 73.8325C33.9011 73.6679 33.9072 73.3509 33.9072 72.9657V72.2586C33.9072 71.6356 33.9072 71.5235 33.8967 71.3957C33.8888 71.2591 33.8554 71.1969 33.765 71.1768C33.7233 71.1685 33.681 71.1638 33.6386 71.1628C33.6297 71.1624 33.6214 71.1587 33.6151 71.1524C33.6089 71.1462 33.6052 71.1379 33.6047 71.1291C33.6047 71.1059 33.6232 71.0967 33.671 71.0967C33.8089 71.0967 34.0692 71.1054 34.0925 71.1054C34.1158 71.1054 34.3809 71.0967 34.5078 71.0967C34.5557 71.0967 34.5741 71.1054 34.5741 71.1291C34.5729 71.1374 34.5692 71.1451 34.5634 71.1512C34.5575 71.1572 34.5499 71.1613 34.5416 71.1628C34.5069 71.162 34.4721 71.1651 34.438 71.172C34.3239 71.1952 34.2988 71.253 34.2914 71.3935C34.2866 71.5213 34.2866 71.6334 34.2866 72.2564L34.2857 72.9657Z" fill="white"/>
<path d="M36.8565 71.0424C37.0661 71.0225 37.2774 71.0467 37.477 71.1135C37.6766 71.1802 37.8599 71.288 38.0151 71.4298C38.1703 71.5717 38.2938 71.7444 38.3779 71.9368C38.4619 72.1293 38.5045 72.3372 38.5028 72.5471C38.5069 72.7654 38.4664 72.9822 38.3836 73.1844C38.3008 73.3865 38.1776 73.5697 38.0215 73.7227C37.8654 73.8758 37.6796 73.9955 37.4755 74.0746C37.2715 74.1537 37.0534 74.1905 36.8346 74.1827C36.6219 74.1943 36.4092 74.1618 36.2098 74.0873C36.0104 74.0127 35.8286 73.8978 35.676 73.7497C35.5234 73.6016 35.4031 73.4236 35.323 73.2268C35.2428 73.0301 35.2044 72.8189 35.2102 72.6066C35.2129 72.3951 35.258 72.1862 35.3429 71.9923C35.4277 71.7984 35.5506 71.6233 35.7043 71.4775C35.858 71.3316 36.0393 71.2178 36.2377 71.1429C36.4361 71.068 36.6476 71.0333 36.8596 71.041M36.9535 74.0155C37.3267 74.0155 38.0801 73.818 38.0801 72.6583C38.0801 71.6951 37.4935 71.1921 36.8363 71.1921C36.1405 71.1921 35.6391 71.6259 35.6391 72.4985C35.636 73.4314 36.1989 74.0164 36.9505 74.0164L36.9535 74.0155Z" fill="white"/>
<path d="M39.5451 73.5821C39.5548 73.9131 39.5912 74.0112 39.7058 74.0405C39.7748 74.0552 39.8451 74.063 39.9156 74.0638C39.92 74.0637 39.9243 74.0646 39.9283 74.0664C39.9323 74.0681 39.9358 74.0707 39.9387 74.0739C39.9416 74.0771 39.9438 74.0809 39.9451 74.0851C39.9465 74.0892 39.9469 74.0936 39.9464 74.0979C39.9464 74.1207 39.9187 74.1299 39.8709 74.1299C39.6364 74.1299 39.4696 74.1158 39.4318 74.1158C39.3941 74.1158 39.2189 74.1299 39.0306 74.1299C38.9867 74.1299 38.9625 74.1255 38.9625 74.0979C38.9624 74.0934 38.9632 74.0888 38.9649 74.0846C38.9666 74.0805 38.9691 74.0767 38.9723 74.0735C38.9755 74.0703 38.9793 74.0678 38.9835 74.0661C38.9877 74.0644 38.9923 74.0636 38.9968 74.0638C39.0542 74.0633 39.1113 74.0555 39.1667 74.0405C39.2698 74.0112 39.2852 73.9035 39.2852 73.5405V71.2452C39.2852 71.0854 39.3085 71.042 39.341 71.042C39.3888 71.042 39.4599 71.1217 39.503 71.165C39.5679 71.2311 40.1725 71.8717 40.8157 72.5319C41.2279 72.9561 41.6722 73.4315 41.8 73.5637L41.756 71.5569C41.7512 71.2964 41.7284 71.2066 41.6006 71.1839C41.5333 71.1727 41.4652 71.1665 41.3969 71.1655C41.3688 71.1655 41.364 71.1427 41.364 71.1278C41.364 71.1037 41.3969 71.0994 41.4443 71.0994C41.6327 71.0994 41.8316 71.1086 41.8794 71.1086C41.9273 71.1086 42.0629 71.0994 42.2306 71.0994C42.2745 71.0994 42.3061 71.1037 42.3061 71.1278C42.3046 71.1387 42.299 71.1487 42.2905 71.1557C42.2819 71.1626 42.2711 71.1662 42.26 71.1655C42.2264 71.1651 42.1929 71.1682 42.1599 71.1747C42.0243 71.2031 42.0133 71.2824 42.0133 71.5249L42.0041 73.8724C42.0041 74.1351 41.9997 74.1596 41.9716 74.1596C41.9277 74.1596 41.8838 74.1263 41.6551 73.914C41.6112 73.8759 41.0119 73.2871 40.572 72.8295C40.0891 72.3248 39.6215 71.8357 39.4937 71.6939L39.5451 73.5821Z" fill="white"/>
<mask id="mask1_38_184" style="mask-type:luminance" maskUnits="userSpaceOnUse" x="0" y="0" width="54" height="38">
<path fill-rule="evenodd" clip-rule="evenodd" d="M0 26.92V26.9449C0 27.4703 0.0162441 27.9921 0.0469758 28.5123C0.415921 22.0396 3.16082 15.9287 7.75829 11.3449C12.3558 6.76102 18.4842 4.02486 24.975 3.65812C31.4658 3.29138 37.8649 5.31971 42.9522 9.35636C48.0394 13.393 51.4589 19.1556 52.5587 25.5453C52.8301 27.0089 52.9665 28.4943 52.9661 29.9828C52.9638 31.1514 52.8781 32.3183 52.7097 33.4748C52.5427 34.7692 52.2766 36.049 51.9138 37.3029C53.4538 33.6264 54.1564 29.6548 53.9709 25.6747C53.7854 21.6946 52.7163 17.8052 50.8409 14.2869C48.9655 10.7687 46.3305 7.70942 43.1259 5.32972C39.9212 2.95002 36.2269 1.30923 32.3094 0.525718C28.3919 -0.257798 24.3489 -0.164512 20.4719 0.798845C16.5949 1.7622 12.9807 3.57161 9.88985 6.09657C6.79903 8.62153 4.30869 11.7991 2.59846 15.4C0.888223 19.001 0.000731975 22.9356 0 26.92Z" fill="white"/>
</mask>
<g mask="url(#mask1_38_184)">
<path d="M54 0H0V37.3026H54V0Z" fill="white"/>
</g>
<mask id="mask2_38_184" style="mask-type:luminance" maskUnits="userSpaceOnUse" x="0" y="3" width="53" height="51">
<path fill-rule="evenodd" clip-rule="evenodd" d="M0.0473633 28.5113C0.40821 34.5347 2.78592 40.263 6.79959 44.7787C10.8133 49.2943 16.2306 52.3359 22.1838 53.4162C17.1816 52.0464 12.7477 49.1216 9.52644 45.0669C6.30519 41.0121 4.46443 36.0387 4.27166 30.8693C4.26156 30.5694 4.25892 30.2791 4.25892 29.981C4.25903 23.9252 6.52771 18.0879 10.6201 13.6138C14.7124 9.13964 20.3332 6.3514 26.3803 5.79585C32.4273 5.24029 38.4644 6.95748 43.3076 10.6107C48.1508 14.2639 51.4508 19.5896 52.5604 25.5434C51.4607 19.1538 48.0413 13.3912 42.9541 9.3545C37.8669 5.31782 31.4679 3.28941 24.9771 3.65604C18.4863 4.02267 12.3579 6.75869 7.76035 11.3424C3.16281 15.9261 0.417785 22.0369 0.0486805 28.5095" fill="white"/>
</mask>
<g mask="url(#mask2_38_184)">
<path d="M52.5591 3.61621H0.0473633V53.4185H52.5591V3.61621Z" fill="white"/>
</g>
<path d="M31.6971 21.5267C30.3638 21.5267 28.6169 21.5919 27.8078 21.6248H24.8347C24.0208 21.5919 22.2748 21.5267 20.9389 21.5267C20.5086 21.5267 20.3242 21.6011 20.3242 21.8332C20.3242 21.9851 20.4814 22.0648 20.6315 22.0648C21.0683 22.0633 21.5043 22.1015 21.9341 22.179C23.2007 22.4456 23.5071 23.0516 23.5884 24.3571C23.6209 24.9263 23.6424 25.47 23.6516 26.4953V53.6028C27.1019 49.731 29.0038 44.729 28.995 39.5493V26.498C29.0007 25.4683 29.0204 24.9254 29.0608 24.3558C29.1346 23.0503 29.445 22.4443 30.7093 22.1777C31.1377 22.1003 31.5722 22.0621 32.0075 22.0635C32.1651 22.0635 32.3149 21.9838 32.3149 21.8319C32.3149 21.6016 32.1283 21.5254 31.7002 21.5254" fill="white"/>
</g>
</mask>
<g mask="url(#mask0_38_184)">
<rect x="-1.63635" y="-0.54541" width="57.2727" height="57.2727" fill="black"/>
</g>
<defs>
<clipPath id="clip0_38_184">
<rect width="54" height="74.1818" fill="white"/>
</clipPath>
</defs>
</svg>
